<svg width="60" height="60" viewBox="0 0 60 60" fill="none" xmlns="http://www.w3.org/2000/svg">
<path d="M55.001 30.2621C55.001 35.2068 53.5347 40.0405 50.7876 44.1519C48.0404 48.2633 44.1358 51.4678 39.5675 53.3601C34.9991 55.2523 29.9722 55.7474 25.1225 54.7828C20.2728 53.8181 15.818 51.437 12.3216 47.9405C8.82509 44.4441 6.44397 39.9893 5.4793 35.1396C4.51463 30.2898 5.00973 25.263 6.902 20.6946C8.79427 16.1263 11.9987 12.2216 16.1101 9.47448C20.2215 6.72733 25.0552 5.26105 30 5.26105C33.2832 5.26105 36.5342 5.90772 39.5675 7.16414C42.6007 8.42056 45.3568 10.2621 47.6784 12.5837C49.9999 14.9052 51.8415 17.6613 53.0979 20.6946C54.3543 23.7279 55.001 26.9789 55.001 30.2621ZM46.2 30.4516C46.1983 27.6429 45.4587 24.884 44.0553 22.4512C42.6518 20.0184 40.6337 17.997 38.2032 16.5895C35.7727 15.182 33.015 14.4379 30.2064 14.4316C27.3978 14.4253 24.6368 15.1571 22.2 16.5537C20.7208 17.4062 19.3863 18.4881 18.2463 19.7589V17.5895C18.2463 17.2578 18.1145 16.9397 17.88 16.7052C17.6455 16.4707 17.3274 16.3389 16.9958 16.3389C16.6641 16.3389 16.346 16.4707 16.1115 16.7052C15.877 16.9397 15.7452 17.2578 15.7452 17.5895V22.8316C15.7461 23.1627 15.8782 23.48 16.1126 23.7138C16.347 23.9476 16.6646 24.0789 16.9958 24.0789H22.2315C22.5519 24.0628 22.8539 23.9242 23.0749 23.6918C23.296 23.4593 23.4193 23.1508 23.4193 22.83C23.4193 22.5092 23.296 22.2007 23.0749 21.9682C22.8539 21.7358 22.5519 21.5972 22.2315 21.581H19.9673C21.2357 20.1183 22.8039 18.9456 24.5654 18.1425C26.327 17.3393 28.2408 16.9245 30.1768 16.9263C32.851 16.9269 35.4649 17.7204 37.6881 19.2065C39.9113 20.6926 41.644 22.8045 42.6671 25.2752C43.6901 27.7459 43.9576 30.4645 43.4358 33.0872C42.9139 35.71 41.6261 38.1191 39.7352 40.01C37.8443 41.9009 35.4352 43.1887 32.8125 43.7105C30.1897 44.2324 27.4711 43.9649 25.0004 42.9418C22.5297 41.9188 20.4178 40.1861 18.9317 37.9629C17.4457 35.7396 16.6522 33.1257 16.6515 30.4516C16.6515 30.1199 16.5198 29.8018 16.2853 29.5673C16.0508 29.3328 15.7327 29.201 15.401 29.201C15.0694 29.201 14.7513 29.3328 14.5168 29.5673C14.2822 29.8018 14.1505 30.1199 14.1505 30.4516C14.1505 32.5562 14.565 34.6402 15.3704 36.5846C16.1758 38.529 17.3563 40.2957 18.8445 41.7839C20.3327 43.2721 22.0994 44.4526 24.0438 45.258C25.9882 46.0634 28.0722 46.4779 30.1768 46.4779C32.2814 46.4779 34.3654 46.0634 36.3098 45.258C38.2542 44.4526 40.0209 43.2721 41.5091 41.7839C42.9973 40.2957 44.1778 38.529 44.9832 36.5846C45.7886 34.6402 46.2 32.5562 46.2 30.4516ZM31.1589 30.1389V21.701C31.1428 21.3807 31.0042 21.0787 30.7717 20.8577C30.5393 20.6366 30.2308 20.5133 29.91 20.5133C29.5892 20.5133 29.2807 20.6366 29.0482 20.8577C28.8157 21.0787 28.6771 21.3807 28.661 21.701V30.6726C28.6606 30.8634 28.704 31.0516 28.7877 31.223C28.8715 31.3943 28.9934 31.5442 29.1442 31.661L33.9979 36.5116C34.1135 36.6296 34.2515 36.7236 34.4037 36.788C34.5559 36.8524 34.7194 36.886 34.8847 36.8868C35.05 36.8876 35.2138 36.8557 35.3666 36.7928C35.5195 36.73 35.6584 36.6374 35.7753 36.5206C35.8921 36.4037 35.9847 36.2648 36.0475 36.1119C36.1104 35.9591 36.1423 35.7953 36.1415 35.63C36.1407 35.4647 36.1071 35.3012 36.0427 35.149C35.9783 34.9968 35.8843 34.8588 35.7663 34.7432L31.1589 30.1389Z" fill="white"/>
</svg>
