<svg width="794" height="433" viewBox="0 0 794 433" fill="none" xmlns="http://www.w3.org/2000/svg">
<g clip-path="url(#clip0_10_122)">
<mask id="mask0_10_122" style="mask-type:luminance" maskUnits="userSpaceOnUse" x="-955" y="-654" width="1895" height="1341">
<path d="M-954.754 -653.238H939.301V686.002H-954.754V-653.238Z" fill="white"/>
</mask>
<g mask="url(#mask0_10_122)">
<path d="M63.6912 218.502C63.6912 167.968 83.6579 122.036 116.066 88.0829L381.261 357.015C380.213 357.989 379.162 358.966 378.089 359.917C377.565 360.383 377.027 360.838 376.498 361.297C374.093 363.387 371.632 365.411 369.124 367.378C368.467 367.891 367.823 368.417 367.16 368.921C365.931 369.859 364.68 370.768 363.43 371.675C362.516 372.336 361.598 372.991 360.674 373.636C359.472 374.476 358.269 375.31 357.047 376.122C355.848 376.919 354.629 377.686 353.411 378.455C351.713 379.529 349.996 380.575 348.262 381.596C346.912 382.388 345.562 383.178 344.192 383.938C343.112 384.537 342.023 385.119 340.93 385.697C339.542 386.433 338.142 387.149 336.734 387.851C335.733 388.348 334.738 388.854 333.728 389.333C331.442 390.422 329.139 391.473 326.803 392.469C326.036 392.798 325.256 393.097 324.484 393.416C322.693 394.152 320.891 394.87 319.075 395.551C318.137 395.905 317.197 396.247 316.254 396.584C314.369 397.259 312.472 397.9 310.56 398.514C309.836 398.748 309.116 398.998 308.387 399.223C305.797 400.022 303.183 400.764 300.549 401.453C299.856 401.635 299.154 401.795 298.459 401.968C296.38 402.485 294.292 402.971 292.189 403.419C291.354 403.597 290.519 403.772 289.682 403.939C287.286 404.413 284.877 404.847 282.452 405.232C282.069 405.293 281.691 405.367 281.309 405.426C278.494 405.853 275.657 406.209 272.805 406.51C272.087 406.587 271.365 406.645 270.647 406.713C268.409 406.922 266.159 407.095 263.898 407.228C263.117 407.273 262.339 407.322 261.556 407.358C258.642 407.491 255.718 407.581 252.77 407.581C148.512 407.581 63.6912 322.76 63.6912 218.502ZM414.526 365.202C412.425 365.202 410.425 365.614 408.582 366.336L399.552 357.308C399.572 357.287 399.592 357.265 399.61 357.242C433.859 321.017 454.892 272.172 454.892 218.504H441.85C441.85 246.217 435.807 272.528 425.051 296.267C421.372 304.38 417.141 312.189 412.4 319.647C412.342 319.739 412.281 319.833 412.22 319.926C408.729 325.399 404.96 330.682 400.94 335.755C400.812 335.915 400.686 336.079 400.557 336.239C399.271 337.852 397.957 339.442 396.62 341.013C396.422 341.244 396.218 341.474 396.02 341.706C394.166 343.859 392.254 345.955 390.308 348.023L125.15 79.1288C158.809 48.2823 203.624 29.4225 252.77 29.4225L252.773 16.3829C200.065 16.3829 152.026 36.687 116.005 69.8553L106.576 60.2938C107.049 58.7775 107.316 57.1734 107.316 55.5018C107.316 46.5005 100.02 39.2023 91.0169 39.2023C82.0156 39.2023 74.7173 46.5005 74.7173 55.5018C74.7173 64.5054 82.0156 71.8036 91.0169 71.8036C93.1182 71.8036 95.1182 71.3919 96.963 70.6675L105.991 79.698C71.7094 115.93 50.6516 164.802 50.6516 218.502C50.6516 329.951 141.322 420.623 252.77 420.623C255.954 420.623 259.119 420.54 262.264 420.393C262.451 420.384 262.64 420.38 262.827 420.371C265.853 420.222 268.859 419.997 271.848 419.716C272.143 419.687 272.44 419.667 272.737 419.637C275.653 419.349 278.548 418.992 281.426 418.582C281.779 418.531 282.132 418.486 282.483 418.434C285.325 418.013 288.143 417.529 290.942 416.992C291.313 416.92 291.685 416.85 292.054 416.778C294.841 416.227 297.608 415.615 300.353 414.951C300.715 414.863 301.075 414.776 301.435 414.686C304.193 414.002 306.929 413.262 309.642 412.463C309.959 412.371 310.274 412.276 310.592 412.182C313.345 411.358 316.074 410.481 318.776 409.545C319.022 409.459 319.267 409.37 319.512 409.284C322.281 408.312 325.024 407.288 327.737 406.2C327.879 406.143 328.021 406.083 328.165 406.026C330.975 404.892 333.755 403.7 336.502 402.445C336.504 402.445 336.507 402.445 336.507 402.445C350.678 395.968 363.972 387.895 376.166 378.467C376.179 378.455 376.195 378.444 376.208 378.435C378.627 376.563 381 374.638 383.329 372.662C383.358 372.638 383.387 372.613 383.417 372.588C385.738 370.617 388.015 368.595 390.245 366.52C390.26 366.509 390.274 366.496 390.287 366.484L399.361 375.558C398.638 377.4 398.227 379.403 398.227 381.502C398.227 390.503 405.525 397.801 414.526 397.801C423.528 397.801 430.826 390.503 430.826 381.502C430.826 372.5 423.528 365.202 414.526 365.202Z" fill="white"/>
</g>
<path d="M492.578 205.003V139.694H479.613V120.185H480.825H515.721V205.003H514.51H492.578Z" fill="white"/>
<path d="M598.601 186.343V205.003H597.389H532.079L567.218 164.048C570.369 160.413 572.671 157.505 574.125 155.324C575.579 153.143 576.508 151.124 576.911 149.266C576.993 148.781 577.034 148.337 577.034 147.933C577.115 147.529 577.156 147.085 577.156 146.6C577.156 143.773 576.307 141.269 574.611 139.088C572.915 136.907 570.572 135.735 567.583 135.574C567.099 135.655 566.412 135.816 565.523 136.058C564.716 136.22 563.827 136.584 562.858 137.149C561.565 137.957 560.354 139.37 559.223 141.39C558.092 143.329 557.526 146.196 557.526 149.993H556.315H535.11C535.11 148.539 535.231 147.004 535.474 145.388C535.716 143.773 536.039 142.157 536.443 140.542C537.978 134.887 541.088 129.677 545.773 124.911C550.539 120.145 557.769 117.762 567.462 117.762H568.674C578.933 117.762 586.647 120.589 591.817 126.244C596.987 131.898 599.572 138.482 599.572 145.994C599.572 147.852 599.41 149.67 599.087 151.447C598.764 153.143 598.28 154.84 597.633 156.536C595.937 160.575 593.15 164.856 589.273 169.38C585.476 173.903 580.266 179.558 573.642 186.343H598.601Z" fill="white"/>
<path d="M647.189 205.004H622.107L642.463 175.802C641.655 175.963 640.807 176.125 639.919 176.287C639.03 176.367 638.061 176.408 637.01 176.408H635.799C627.963 176.408 621.784 173.742 617.26 168.411C612.736 162.998 610.475 156.375 610.475 148.539C610.475 140.057 613.342 132.828 619.078 126.85C624.813 120.791 632.931 117.762 643.432 117.762H644.644C654.58 117.762 662.456 120.63 668.272 126.365C674.169 132.02 677.117 139.411 677.117 148.539C677.117 152.013 676.794 155.284 676.148 158.354C675.583 161.343 674.613 164.331 673.24 167.32C672.513 168.855 671.705 170.43 670.817 172.046C669.928 173.581 668.918 175.156 667.787 176.771L648.4 205.004H647.189ZM644.281 135.574C640.726 135.736 637.939 137.068 635.92 139.573C633.9 141.996 632.891 144.904 632.891 148.297C632.891 151.609 633.9 154.517 635.92 157.021C637.939 159.444 640.726 160.737 644.281 160.898C647.916 160.737 650.703 159.444 652.641 157.021C654.58 154.517 655.549 151.609 655.549 148.297C655.549 144.985 654.58 142.077 652.641 139.573C650.703 137.068 647.916 135.736 644.281 135.574Z" fill="white"/>
<path d="M736.854 159.929V160.171C737.742 160.414 738.752 160.777 739.882 161.262C741.094 161.746 742.266 162.393 743.397 163.2C745.82 164.735 748.001 166.957 749.94 169.865C751.959 172.773 752.969 176.731 752.969 181.739C752.969 183.112 752.848 184.647 752.605 186.344C752.363 188.04 751.878 189.777 751.151 191.554C749.536 195.512 746.426 199.147 741.821 202.459C737.217 205.69 730.028 207.306 720.253 207.306L719.042 207.427C709.268 207.346 702.078 205.69 697.474 202.459C692.869 199.147 689.759 195.512 688.144 191.554C687.417 189.777 686.932 188.04 686.69 186.344C686.447 184.647 686.326 183.113 686.326 181.739C686.326 176.731 687.295 172.773 689.234 169.865C691.254 166.957 693.475 164.735 695.899 163.2C697.029 162.393 698.16 161.746 699.291 161.262C700.503 160.777 701.553 160.414 702.442 160.171V159.929C699.211 158.717 696.343 156.577 693.839 153.507C691.415 150.437 690.204 146.318 690.204 141.148C690.204 134.524 692.627 128.991 697.474 124.548C702.401 120.024 709.591 117.762 719.042 117.762H720.253C729.704 117.762 736.853 120.024 741.7 124.548C746.627 128.991 749.092 134.524 749.092 141.148C749.092 146.318 747.839 150.437 745.335 153.507C742.912 156.577 740.085 158.717 736.854 159.929ZM719.648 189.615C722.879 189.454 725.342 188.323 727.039 186.222C728.816 184.041 729.704 181.537 729.704 178.71C729.704 175.721 728.937 173.419 727.402 171.803C725.948 170.188 724.333 169.097 722.556 168.532C722.071 168.37 721.586 168.249 721.101 168.168C720.617 168.088 720.132 168.047 719.648 168.047C717.063 168.128 714.76 169.138 712.741 171.076C710.721 172.934 709.712 175.479 709.712 178.71C709.712 181.456 710.56 183.92 712.256 186.101C714.033 188.282 716.497 189.454 719.648 189.615ZM719.648 152.78C719.728 152.78 719.809 152.78 719.89 152.78C720.051 152.78 720.172 152.739 720.253 152.659C722.192 152.497 723.929 151.689 725.464 150.235C727.079 148.781 727.887 146.6 727.887 143.692C727.887 141.027 727.281 139.047 726.069 137.755C724.858 136.382 723.565 135.453 722.192 134.968C721.707 134.807 721.263 134.685 720.859 134.605C720.455 134.524 720.052 134.483 719.648 134.483C719.244 134.483 718.759 134.564 718.193 134.726C717.709 134.807 717.224 134.968 716.74 135.21C715.447 135.695 714.235 136.584 713.105 137.876C712.054 139.169 711.529 141.107 711.529 143.692C711.529 146.6 712.256 148.781 713.71 150.235C715.245 151.609 716.901 152.416 718.678 152.659C718.84 152.659 719.001 152.699 719.163 152.78C719.324 152.78 719.486 152.78 719.648 152.78Z" fill="white"/>
<path d="M477.598 277.598V241.885H478.108H509.944V277.598H509.434H499.434V250.456H488.108V277.598H487.598H477.598Z" fill="white"/>
<path d="M517.392 277.598V241.885H517.903H532.953C536.762 241.885 539.602 242.701 541.473 244.334C543.378 245.967 544.653 247.769 545.299 249.742C545.537 250.456 545.708 251.17 545.81 251.885C545.911 252.565 545.962 253.211 545.962 253.823C545.962 254.436 545.911 255.099 545.81 255.813C545.707 256.493 545.537 257.191 545.299 257.905C544.687 259.878 543.429 261.697 541.524 263.364C539.619 264.996 536.762 265.813 532.953 265.813H527.902V277.598H527.392H517.392ZM527.902 249.742V257.956H530.249C531.712 257.956 532.783 257.718 533.463 257.242C534.143 256.766 534.603 256.255 534.841 255.711C534.977 255.337 535.062 254.98 535.096 254.64C535.13 254.3 535.147 254.027 535.147 253.823C535.147 253.619 535.13 253.415 535.096 253.211C535.096 253.007 535.079 252.803 535.045 252.599C534.875 251.885 534.449 251.239 533.769 250.66C533.089 250.048 531.916 249.742 530.249 249.742H527.902Z" fill="white"/>
<path d="M569.227 278.618C562.968 278.618 558.207 276.731 554.941 272.955C551.676 269.18 550.044 264.775 550.044 259.741C550.044 254.742 551.642 250.354 554.839 246.579C558.071 242.769 562.866 240.865 569.227 240.865H569.737C576.097 240.865 580.876 242.769 584.073 246.579C587.304 250.354 588.92 254.742 588.92 259.741C588.92 264.775 587.304 269.163 584.073 272.904C580.876 276.646 576.097 278.533 569.737 278.567L569.227 278.618ZM569.431 270.047C569.771 270.047 570.128 270.03 570.502 269.996C570.876 269.928 571.25 269.826 571.625 269.69C573.257 269.248 574.737 268.262 576.063 266.731C577.424 265.166 578.104 262.837 578.104 259.742C578.104 256.646 577.424 254.334 576.063 252.803C574.703 251.239 573.223 250.235 571.625 249.793C571.25 249.691 570.876 249.606 570.502 249.538C570.162 249.47 569.822 249.436 569.482 249.436C569.107 249.436 568.716 249.47 568.308 249.538C567.9 249.606 567.509 249.708 567.135 249.844C565.57 250.32 564.125 251.341 562.798 252.905C561.506 254.436 560.86 256.715 560.86 259.742C560.86 262.769 561.506 265.065 562.798 266.629C564.125 268.16 565.57 269.163 567.135 269.639C567.509 269.775 567.883 269.877 568.257 269.945C568.665 270.013 569.057 270.047 569.431 270.047Z" fill="white"/>
<path d="M610.041 277.598V272.598C609.191 272.598 608.307 272.564 607.389 272.496C606.47 272.428 605.535 272.292 604.583 272.088C601.726 271.51 599.107 270.2 596.726 268.16C594.379 266.119 593.206 262.837 593.206 258.313C593.206 253.823 594.396 250.558 596.777 248.517C599.158 246.443 601.777 245.099 604.634 244.487C605.45 244.317 606.249 244.198 607.032 244.13C607.848 244.062 608.63 244.028 609.378 244.028C609.447 244.028 609.498 244.028 609.531 244.028C609.599 244.028 609.667 244.028 609.735 244.028C609.769 244.028 609.82 244.028 609.889 244.028C609.957 244.028 610.008 244.028 610.041 244.028V240.099H610.551H620.55V244.028C620.686 244.028 620.823 244.028 620.959 244.028C621.095 244.028 621.231 244.028 621.367 244.028C622.251 244.028 623.289 244.096 624.479 244.232C625.703 244.368 626.962 244.657 628.254 245.099C630.533 245.847 632.625 247.225 634.529 249.232C636.434 251.204 637.387 254.231 637.387 258.313C637.387 262.905 636.179 266.221 633.764 268.262C631.383 270.268 628.747 271.561 625.856 272.139C624.938 272.309 624.02 272.428 623.101 272.496C622.217 272.564 621.367 272.598 620.55 272.598V277.598H620.04L610.041 277.598ZM610.756 265.456V251.17C608.817 251.204 607.355 251.613 606.368 252.395C605.416 253.177 604.736 254.045 604.328 254.997C604.056 255.643 603.885 256.272 603.817 256.885C603.749 257.497 603.715 257.973 603.715 258.313C603.715 258.653 603.749 259.129 603.817 259.742C603.886 260.354 604.056 260.983 604.328 261.629C604.736 262.582 605.416 263.449 606.368 264.231C607.355 265.013 608.817 265.422 610.756 265.456ZM619.837 251.17V265.456C620.211 265.456 620.67 265.422 621.215 265.353C621.759 265.251 622.303 265.098 622.847 264.894C623.868 264.52 624.786 263.84 625.602 262.854C626.452 261.867 626.878 260.354 626.878 258.313C626.878 256.272 626.452 254.759 625.602 253.772C624.786 252.786 623.868 252.106 622.847 251.732C622.303 251.528 621.759 251.392 621.215 251.324C620.67 251.221 620.211 251.17 619.837 251.17Z" fill="white"/>
<path d="M644.785 241.885H654.428V262.548L667.743 241.885H668.254H678.049V277.598H677.539H667.897V256.987L654.785 277.598H654.275H644.275V241.885H644.785Z" fill="white"/>
<path d="M691.977 241.885H719.119V277.598H718.609H708.609V250.456H701.977V264.537C701.977 265.286 701.943 266.102 701.874 266.986C701.84 267.871 701.721 268.772 701.517 269.69C701.075 271.799 699.969 273.721 698.201 275.455C696.466 277.156 693.405 278.006 689.017 278.006L688.507 278.057C687.963 278.023 687.47 277.989 687.028 277.955C686.619 277.955 686.211 277.921 685.803 277.853C685.565 277.819 685.327 277.768 685.089 277.7C684.851 277.666 684.596 277.632 684.323 277.598V269.027H684.834C685.174 269.129 685.497 269.214 685.803 269.282C686.143 269.316 686.484 269.35 686.824 269.384C689.034 269.316 690.361 268.534 690.803 267.037C691.245 265.507 691.466 263.687 691.466 261.578V241.885L691.977 241.885Z" fill="white"/>
<path d="M727.588 277.598V241.885H728.098H738.098V255.813H743.353C744.067 255.813 745.002 255.847 746.159 255.915C747.315 255.983 748.522 256.204 749.781 256.579C751.686 257.123 753.42 258.143 754.985 259.64C756.583 261.136 757.382 263.483 757.382 266.68C757.382 269.877 756.583 272.241 754.985 273.772C753.42 275.268 751.703 276.289 749.832 276.833C748.574 277.207 747.349 277.428 746.159 277.496C744.968 277.564 744.033 277.598 743.353 277.598H742.843L727.588 277.598ZM738.098 270.455H741.873C743.37 270.455 744.577 270.2 745.496 269.69C746.414 269.146 746.873 268.143 746.873 266.68C746.873 265.252 746.414 264.282 745.496 263.772C744.611 263.228 743.404 262.956 741.873 262.956H738.098V270.455Z" fill="white"/>
<path d="M477.598 325.861V290.148H478.108H488.108V304.433L498.363 290.148H498.873H510.607L497.036 307.443L510.964 325.861H510.454H497.955L488.108 311.27V325.861H487.598H477.598Z" fill="white"/>
<path d="M524.28 325.861L529.127 316.015L515.709 290.148H516.219H528.004L534.687 304.535L540.198 290.148H540.708H551.575L535.504 325.861H534.994H524.28Z" fill="white"/>
<path d="M558.513 325.861V290.148H559.024H574.074C577.884 290.148 580.724 290.965 582.594 292.597C584.499 294.23 585.774 296.032 586.421 298.005C586.659 298.719 586.829 299.434 586.931 300.148C587.032 300.828 587.083 301.474 587.083 302.086C587.083 302.699 587.032 303.362 586.931 304.076C586.829 304.756 586.659 305.454 586.421 306.168C585.808 308.141 584.55 309.96 582.645 311.627C580.741 313.26 577.884 314.076 574.074 314.076H569.023V325.861H568.513H558.513ZM569.023 298.005V306.219H571.37C572.833 306.219 573.904 305.981 574.584 305.505C575.265 305.029 575.724 304.518 575.962 303.974C576.098 303.6 576.183 303.243 576.217 302.903C576.251 302.563 576.268 302.291 576.268 302.086C576.268 301.882 576.251 301.678 576.217 301.474C576.217 301.27 576.2 301.066 576.165 300.862C575.995 300.148 575.57 299.502 574.89 298.923C574.21 298.311 573.036 298.005 571.37 298.005H569.023Z" fill="white"/>
<path d="M593.766 325.861V290.148H594.277H604.276V304.433L614.531 290.148H615.041H626.775L613.204 307.443L627.132 325.861H626.622H614.123L604.276 311.27V325.861H603.766H593.766Z" fill="white"/>
<path d="M634.581 290.148H644.224V310.811L657.539 290.148H658.05H667.845V325.861H667.335H657.693V305.25L644.581 325.861H644.071H634.071V290.148H634.581Z" fill="white"/>
<path d="M678.355 325.861V290.148H678.865H688.865V303.005H700.497V290.148H701.007H711.007V325.861H710.497H700.497V311.576H688.865V325.861H688.355H678.355Z" fill="white"/>
<path d="M737.077 326.881C730.819 326.881 726.057 324.994 722.792 321.218C719.527 317.443 717.894 313.038 717.894 308.005C717.894 303.005 719.493 298.617 722.69 294.842C725.921 291.033 730.717 289.128 737.077 289.128H737.587C743.948 289.128 748.726 291.033 751.923 294.842C755.155 298.617 756.77 303.005 756.77 308.005C756.77 313.038 755.155 317.426 751.923 321.167C748.726 324.909 743.948 326.796 737.587 326.83L737.077 326.881ZM737.281 318.31C737.621 318.31 737.978 318.293 738.353 318.259C738.727 318.191 739.101 318.089 739.475 317.953C741.108 317.511 742.587 316.525 743.914 314.994C745.274 313.43 745.954 311.1 745.954 308.005C745.954 304.91 745.274 302.597 743.914 301.066C742.553 299.502 741.074 298.498 739.475 298.056C739.101 297.954 738.727 297.869 738.353 297.801C738.012 297.733 737.672 297.699 737.332 297.699C736.958 297.699 736.567 297.733 736.159 297.801C735.751 297.869 735.36 297.971 734.985 298.107C733.421 298.583 731.975 299.604 730.649 301.168C729.356 302.699 728.71 304.978 728.71 308.005C728.71 311.032 729.356 313.328 730.649 314.892C731.975 316.423 733.421 317.426 734.985 317.902C735.36 318.038 735.734 318.14 736.108 318.208C736.516 318.276 736.907 318.31 737.281 318.31Z" fill="white"/>
<mask id="mask1_10_122" style="mask-type:luminance" maskUnits="userSpaceOnUse" x="-955" y="-654" width="1895" height="1341">
<path d="M-954.754 -653.238H939.301V686.002H-954.754V-653.238Z" fill="white"/>
</mask>
<g mask="url(#mask1_10_122)">
<path d="M756.746 217.544H441.765L441.868 229.261H756.746V217.544Z" fill="white"/>
<path d="M241.921 218.502H284.363V381.059C274.124 383.039 263.559 384.11 252.74 384.11C249.1 384.11 245.5 383.95 241.921 383.721V268.434V218.502Z" fill="#ED1D24"/>
<path d="M310.161 167.738V63.1333C373.319 86.4836 418.348 147.23 418.348 218.502C418.348 272.454 392.537 320.362 352.603 350.599V167.738H310.161Z" fill="#0092C8"/>
<path d="M185.332 67.2409V268.435V369.764C127.477 343.939 87.1316 285.952 87.1316 218.502C87.1316 151.054 127.477 93.0637 185.332 67.2409Z" fill="#0092C8"/>
<path d="M284.363 167.738V218.502H241.922V53.2861C245.501 53.0543 249.101 52.8946 252.741 52.8946C272.93 52.8946 292.271 56.519 310.161 63.1333V167.738H284.363Z" fill="#003D58"/>
<path d="M241.921 268.434V383.719C221.873 382.425 202.809 377.564 185.33 369.764V268.434H241.921Z" fill="white"/>
<path d="M241.921 218.502V268.434H185.33V67.2417C202.809 59.4395 221.873 54.58 241.921 53.2841V218.502Z" fill="#FEDA00"/>
<path d="M284.363 167.738H310.161H352.603V350.599C332.846 365.558 309.628 376.17 284.363 381.059V218.502V167.738Z" fill="white"/>
</g>
</g>
<defs>
<clipPath id="clip0_10_122">
<rect width="794" height="433" fill="white"/>
</clipPath>
</defs>
</svg>
